# xmcd
#
# Track frame offsets:
# 150
# 17350
# 32917
# 51937
# 67987
# 85370
# 104382
# 120930
# 144350
# 161582
# 182197
# 196420
#
# Disc length: 2781 seconds
#
#
# Revision: 4
# Processed by: cddbd v1.4PL0 Copyright (c) Steve Scherf et al.
# Submitted via: FreeRIP 2.35 
#
DISCID=9a0adb0c
DTITLE=Collin Raye - Can't Back Down
DYEAR=2001
DGENRE=Country
TTITLE0=Gypsy Honeymoon
TTITLE1=It Could Be That Easy
TTITLE2=Ain't Nobody Gonna Take That From Me
TTITLE3=What I Need
TTITLE4=Dancing With No Music Playing
TTITLE5=You Always Get To Me
TTITLE6=End Of The World
TTITLE7=One Desire
TTITLE8=Young As We're Ever Gonna Be
TTITLE9=Dear Life
TTITLE10=What I Did For Love
TTITLE11=I Can Let Go Now
EXTD=
EXTT0=
EXTT1=
EXTT2=
EXTT3=
EXTT4=
EXTT5=
EXTT6=
EXTT7=
EXTT8=
EXTT9=
EXTT10=
EXTT11=
PLAYORDER=
